<svg version="1.1" viewBox="0.0 0.0 1158.1469816272966 247.58530183727035" fill="none" stroke="none" stroke-linecap="square" stroke-miterlimit="10" xmlns:xlink="http://www.w3.org/1999/xlink" xmlns="http://www.w3.org/2000/svg"><clipPath id="p.0"><path d="m0 0l1158.147 0l0 247.5853l-1158.147 0l0 -247.5853z" clip-rule="nonzero"/></clipPath><g clip-path="url(#p.0)"><path fill="#000000" fill-opacity="0.0" d="m0 0l1158.147 0l0 247.5853l-1158.147 0z" fill-rule="evenodd"/><path fill="#ff9f9f" d="m89.82415 54.67454l0 0c0 -9.184452 7.445465 -16.629921 16.629921 -16.629921l0 0c4.41053 0 8.640411 1.7520752 11.759125 4.8707886c3.118721 3.1187172 4.870796 7.3486023 4.870796 11.759132l0 0c0 9.184452 -7.4454727 16.629917 -16.629921 16.629917l0 0c-9.184456 0 -16.629921 -7.445465 -16.629921 -16.629917z" fill-rule="evenodd"/><path fill="#000000" d="m89.82415 123.21144l0 0c0 -9.184448 7.4102097 -16.629921 16.551178 -16.629921l0 0c4.3896484 0 8.599503 1.7520752 11.703453 4.870796c3.1039505 3.1187134 4.847725 7.3485947 4.847725 11.759125l0 0c0 9.184448 -7.4102097 16.629929 -16.551178 16.629929l0 0c-9.140968 0 -16.551178 -7.4454803 -16.551178 -16.629929z" fill-rule="evenodd"/><path stroke="#000000" stroke-width="3.0" stroke-linejoin="round" stroke-linecap="butt" d="m89.82415 123.21144l0 0c0 -9.184448 7.4102097 -16.629921 16.551178 -16.629921l0 0c4.3896484 0 8.599503 1.7520752 11.703453 4.870796c3.1039505 3.1187134 4.847725 7.3485947 4.847725 11.759125l0 0c0 9.184448 -7.4102097 16.629929 -16.551178 16.629929l0 0c-9.140968 0 -16.551178 -7.4454803 -16.551178 -16.629929z" fill-rule="evenodd"/><path fill="#ff9f9f" d="m89.902885 189.63286l0 0c0 -9.184448 7.4102173 -16.629913 16.551186 -16.629913l0 0c4.389641 0 8.599503 1.7520752 11.703453 4.8707886c3.1039429 3.1187134 4.847725 7.3486023 4.847725 11.759125l0 0c0 9.184448 -7.4102173 16.629929 -16.551178 16.629929l0 0c-9.140968 0 -16.551186 -7.4454803 -16.551186 -16.629929z" fill-rule="evenodd"/><path stroke="#000000" stroke-width="2.0" stroke-linejoin="round" stroke-linecap="butt" stroke-dasharray="8.0,6.0" d="m89.902885 189.63286l0 0c0 -9.184448 7.4102173 -16.629913 16.551186 -16.629913l0 0c4.389641 0 8.599503 1.7520752 11.703453 4.8707886c3.1039429 3.1187134 4.847725 7.3486023 4.847725 11.759125l0 0c0 9.184448 -7.4102173 16.629929 -16.551178 16.629929l0 0c-9.140968 0 -16.551186 -7.4454803 -16.551186 -16.629929z" fill-rule="evenodd"/><path fill="#ff9f9f" d="m413.66666 121.62533l0 0c0 -16.707703 13.537231 -30.251968 30.236237 -30.251968l0 0c8.0191345 0 15.709839 3.1872482 21.380219 8.860596c5.67041 5.6733475 8.855988 13.36805 8.855988 21.391373l0 0c0 16.707695 -13.537201 30.251976 -30.236206 30.251976l0 0c-16.699005 0 -30.236237 -13.544281 -30.236237 -30.251976z" fill-rule="evenodd"/><path fill="#ff4335" d="m427.27298 190.69029l0 0c0 -9.184448 7.445465 -16.629929 16.629913 -16.629929l0 0c4.4105225 0 8.640411 1.7520752 11.759125 4.8707886c3.1187134 3.1187286 4.8707886 7.3486023 4.8707886 11.75914l0 0c0 9.184448 -7.445465 16.629913 -16.629913 16.629913l0 0c-9.184448 0 -16.629913 -7.445465 -16.629913 -16.629913z" fill-rule="evenodd"/><path fill="#ff9f9f" d="m853.4829 121.62467l0 0c0 -9.184448 7.4454956 -16.629921 16.629944 -16.629921l0 0c4.4105225 0 8.640442 1.7520752 11.759155 4.8707886c3.1187134 3.118721 4.8707886 7.3486023 4.8707886 11.759132l0 0c0 9.184456 -7.4454956 16.629921 -16.629944 16.629921l0 0c-9.184448 0 -16.629944 -7.445465 -16.629944 -16.629921z" fill-rule="evenodd"/><path fill="#000000" d="m874.9475 122.45342l-4.765625 0l0 5.03125l-1.5 0l0 -11.375l7.046875 0l0 1.234375l-5.546875 0l0 3.890625l4.765625 0l0 1.21875z" fill-rule="nonzero"/><path fill="#000000" fill-opacity="0.0" d="m835.67194 191.74803l68.8819 0" fill-rule="evenodd"/><path stroke="#666666" stroke-width="3.0" stroke-linejoin="round" stroke-linecap="butt" d="m835.67194 191.74803l50.881897 0" fill-rule="evenodd"/><path fill="#666666" stroke="#666666" stroke-width="3.0" stroke-linecap="butt" d="m886.55383 196.70323l13.614258 -4.9552l-13.614258 -4.9552z" fill-rule="evenodd"/><path fill="#000000" fill-opacity="0.0" d="m155.3412 35.929134l177.54332 0l0 33.259846l-177.54332 0z" fill-rule="evenodd"/><path fill="#000000" d="m175.80995 55.166553q-0.203125 2.109375 -1.578125 3.3125q-1.359375 1.1875 -3.625 1.1875q-1.578125 0 -2.796875 -0.75q-1.203125 -0.765625 -1.859375 -2.140625q-0.65625 -1.390625 -0.6875 -3.21875l0 -1.234375q0 -1.875 0.671875 -3.296875q0.671875 -1.4375 1.90625 -2.21875q1.25 -0.78125 2.875 -0.78125q2.203125 0 3.53125 1.203125q1.34375 1.1875 1.5625 3.375l-2.296875 0q-0.15625 -1.4375 -0.828125 -2.0625q-0.671875 -0.640625 -1.96875 -0.640625q-1.5 0 -2.3125 1.109375q-0.796875 1.09375 -0.8125 3.203125l0 1.1875q0 2.140625 0.765625 3.28125q0.765625 1.125 2.25 1.125q1.359375 0 2.03125 -0.609375q0.6875 -0.609375 0.875 -2.03125l2.296875 0zm4.1950226 4.3125l-2.203125 0l0 -14.0l2.203125 0l0 14.0zm8.295517 0q-0.140625 -0.28125 -0.25 -0.921875q-1.046875 1.109375 -2.578125 1.109375q-1.484375 0 -2.4375 -0.84375q-0.9375 -0.859375 -0.9375 -2.109375q0 -1.578125 1.171875 -2.40625q1.171875 -0.84375 3.359375 -0.84375l1.359375 0l0 -0.65625q0 -0.765625 -0.4375 -1.21875q-0.421875 -0.46875 -1.296875 -0.46875q-0.765625 0 -1.25 0.390625q-0.46875 0.375 -0.46875 0.953125l-2.21875 0q0 -0.8125 0.53125 -1.515625q0.546875 -0.703125 1.46875 -1.09375q0.921875 -0.40625 2.0625 -0.40625q1.734375 0 2.75 0.875q1.03125 0.859375 1.0625 2.4375l0 4.4375q0 1.328125 0.375 2.125l0 0.15625l-2.265625 0zm-2.421875 -1.59375q0.65625 0 1.234375 -0.3125q0.578125 -0.328125 0.875 -0.859375l0 -1.859375l-1.203125 0q-1.234375 0 -1.859375 0.4375q-0.609375 0.421875 -0.609375 1.203125q0 0.640625 0.421875 1.015625q0.421875 0.375 1.140625 0.375zm12.155823 -1.078125q0 -0.59375 -0.484375 -0.90625q-0.484375 -0.3125 -1.625 -0.546875q-1.125 -0.234375 -1.875 -0.609375q-1.65625 -0.796875 -1.65625 -2.3125q0 -1.28125 1.0625 -2.125q1.078125 -0.859375 2.734375 -0.859375q1.78125 0 2.859375 0.875q1.09375 0.859375 1.09375 2.265625l-2.21875 0q0 -0.640625 -0.46875 -1.0625q-0.46875 -0.421875 -1.265625 -0.421875q-0.71875 0 -1.1875 0.34375q-0.453125 0.328125 -0.453125 0.890625q0 0.515625 0.421875 0.796875q0.4375 0.28125 1.734375 0.5625q1.296875 0.28125 2.03125 0.6875q0.75 0.390625 1.109375 0.953125q0.375 0.546875 0.375 1.34375q0 1.328125 -1.109375 2.15625q-1.109375 0.828125 -2.890625 0.828125q-1.203125 0 -2.15625 -0.4375q-0.953125 -0.4375 -1.484375 -1.203125q-0.515625 -0.765625 -0.515625 -1.65625l2.140625 0q0.046875 0.78125 0.59375 1.21875q0.546875 0.421875 1.453125 0.421875q0.875 0 1.328125 -0.328125q0.453125 -0.34375 0.453125 -0.875zm9.628738 0q0 -0.59375 -0.484375 -0.90625q-0.484375 -0.3125 -1.625 -0.546875q-1.125 -0.234375 -1.875 -0.609375q-1.65625 -0.796875 -1.65625 -2.3125q0 -1.28125 1.0625 -2.125q1.078125 -0.859375 2.734375 -0.859375q1.78125 0 2.859375 0.875q1.09375 0.859375 1.09375 2.265625l-2.21875 0q0 -0.640625 -0.46875 -1.0625q-0.46875 -0.421875 -1.265625 -0.421875q-0.71875 0 -1.1875 0.34375q-0.453125 0.328125 -0.453125 0.890625q0 0.515625 0.421875 0.796875q0.4375 0.28125 1.734375 0.5625q1.296875 0.28125 2.03125 0.6875q0.75 0.390625 1.109375 0.953125q0.375 0.546875 0.375 1.34375q0 1.328125 -1.109375 2.15625q-1.109375 0.828125 -2.890625 0.828125q-1.203125 0 -2.15625 -0.4375q-0.953125 -0.4375 -1.484375 -1.203125q-0.515625 -0.765625 -0.515625 -1.65625l2.140625 0q0.046875 0.78125 0.59375 1.21875q0.546875 0.421875 1.453125 0.421875q0.875 0 1.328125 -0.328125q0.453125 -0.34375 0.453125 -0.875z" fill-rule="nonzero"/><path fill="#000000" fill-opacity="0.0" d="m155.26247 106.58137l200.7874 0l0 33.259834l-200.7874 0z" fill-rule="evenodd"/><path fill="#000000" d="m168.04372 130.13129l-2.296875 0l0 -13.265625l2.296875 0l0 13.265625zm4.6715393 -9.859375l0.0625 1.140625q1.09375 -1.3125 2.875 -1.3125q3.078125 0 3.125 3.515625l0 6.515625l-2.203125 0l0 -6.390625q0 -0.9375 -0.40625 -1.375q-0.40625 -0.453125 -1.328125 -0.453125q-1.34375 0 -2.0 1.203125l0 7.015625l-2.203125 0l0 -9.859375l2.078125 0zm11.094467 -2.390625l0 2.390625l1.734375 0l0 1.640625l-1.734375 0l0 5.5q0 0.5625 0.21875 0.8125q0.234375 0.25 0.796875 0.25q0.390625 0 0.78125 -0.078125l0 1.703125q-0.75 0.21875 -1.453125 0.21875q-2.5625 0 -2.5625 -2.8125l0 -5.59375l-1.609375 0l0 -1.640625l1.609375 0l0 -2.390625l2.21875 0zm7.7660675 12.4375q-2.09375 0 -3.40625 -1.328125q-1.3125 -1.328125 -1.3125 -3.53125l0 -0.28125q0 -1.46875 0.5625 -2.625q0.578125 -1.171875 1.609375 -1.8125q1.03125 -0.640625 2.296875 -0.640625q2.015625 0 3.109375 1.28125q1.09375 1.28125 1.09375 3.625l0 0.890625l-6.4375 0q0.109375 1.234375 0.8125 1.953125q0.71875 0.703125 1.8125 0.703125q1.515625 0 2.46875 -1.234375l1.203125 1.140625q-0.59375 0.875 -1.59375 1.375q-0.984375 0.484375 -2.21875 0.484375zm-0.265625 -8.453125q-0.90625 0 -1.46875 0.640625q-0.5625 0.640625 -0.703125 1.78125l4.203125 0l0 -0.171875q-0.0625 -1.109375 -0.59375 -1.671875q-0.515625 -0.578125 -1.4375 -0.578125zm11.105087 0.4375q-0.4375 -0.078125 -0.90625 -0.078125q-1.515625 0 -2.046875 1.171875l0 6.734375l-2.21875 0l0 -9.859375l2.125 0l0.046875 1.109375q0.796875 -1.28125 2.21875 -1.28125q0.484375 0 0.78125 0.125l0 2.078125zm2.3505096 7.828125l0 -8.21875l-1.5 0l0 -1.640625l1.5 0l0 -0.90625q0 -1.625 0.90625 -2.515625q0.921875 -0.90625 2.5625 -0.90625q0.578125 0 1.234375 0.171875l-0.046875 1.734375q-0.375 -0.078125 -0.84375 -0.078125q-1.59375 0 -1.59375 1.625l0 0.875l2.0 0l0 1.640625l-2.0 0l0 8.21875l-2.21875 0zm11.72287 0q-0.140625 -0.28125 -0.25 -0.921875q-1.046875 1.109375 -2.578125 1.109375q-1.484375 0 -2.4375 -0.84375q-0.9375 -0.859375 -0.9375 -2.109375q0 -1.578125 1.171875 -2.40625q1.171875 -0.84375 3.359375 -0.84375l1.359375 0l0 -0.65625q0 -0.765625 -0.4375 -1.21875q-0.421875 -0.46875 -1.296875 -0.46875q-0.765625 0 -1.25 0.390625q-0.46875 0.375 -0.46875 0.953125l-2.21875 0q0 -0.8125 0.53125 -1.515625q0.546875 -0.703125 1.46875 -1.09375q0.921875 -0.40625 2.0625 -0.40625q1.734375 0 2.75 0.875q1.03125 0.859375 1.0625 2.4375l0 4.4375q0 1.328125 0.375 2.125l0 0.15625l-2.265625 0zm-2.421875 -1.59375q0.65625 0 1.234375 -0.3125q0.578125 -0.328125 0.875 -0.859375l0 -1.859375l-1.203125 0q-1.234375 0 -1.859375 0.4375q-0.609375 0.421875 -0.609375 1.203125q0 0.640625 0.421875 1.015625q0.421875 0.375 1.140625 0.375zm10.687073 0.015625q0.828125 0 1.375 -0.484375q0.546875 -0.484375 0.578125 -1.203125l2.09375 0q-0.046875 0.921875 -0.59375 1.71875q-0.53125 0.796875 -1.453125 1.265625q-0.90625 0.46875 -1.984375 0.46875q-2.0625 0 -3.28125 -1.34375q-1.203125 -1.34375 -1.203125 -3.703125l0 -0.21875q0 -2.25 1.203125 -3.59375q1.203125 -1.359375 3.28125 -1.359375q1.75 0 2.859375 1.03125q1.109375 1.015625 1.171875 2.671875l-2.09375 0q-0.03125 -0.84375 -0.578125 -1.390625q-0.546875 -0.546875 -1.375 -0.546875q-1.078125 0 -1.671875 0.78125q-0.578125 0.78125 -0.578125 2.359375l0 0.359375q0 1.609375 0.578125 2.40625q0.578125 0.78125 1.671875 0.78125zm10.046631 1.765625q-2.09375 0 -3.40625 -1.328125q-1.3125 -1.328125 -1.3125 -3.53125l0 -0.28125q0 -1.46875 0.5625 -2.625q0.578125 -1.171875 1.609375 -1.8125q1.03125 -0.640625 2.296875 -0.640625q2.015625 0 3.109375 1.28125q1.09375 1.28125 1.09375 3.625l0 0.890625l-6.4375 0q0.109375 1.234375 0.8125 1.953125q0.71875 0.703125 1.8125 0.703125q1.515625 0 2.46875 -1.234375l1.203125 1.140625q-0.59375 0.875 -1.59375 1.375q-0.984375 0.484375 -2.21875 0.484375zm-0.265625 -8.453125q-0.90625 0 -1.46875 0.640625q-0.5625 0.640625 -0.703125 1.78125l4.203125 0l0 -0.171875q-0.0625 -1.109375 -0.59375 -1.671875q-0.515625 -0.578125 -1.4375 -0.578125z" fill-rule="nonzero"/><path fill="#000000" fill-opacity="0.0" d="m155.3412 175.1181l200.7874 0l0 33.259857l-200.7874 0z" fill-rule="evenodd"/><path fill="#000000" d="m173.10683 195.57428l-5.125 0l-1.078125 3.09375l-2.40625 0l5.015625 -13.265625l2.0625 0l5.03125 13.265625l-2.40625 0l-1.09375 -3.09375zm-4.484375 -1.859375l3.84375 0l-1.921875 -5.5l-1.921875 5.5zm17.916245 0.125q0 2.296875 -1.03125 3.65625q-1.015625 1.359375 -2.8125 1.359375q-1.734375 0 -2.6875 -1.25l-0.109375 1.0625l-2.015625 0l0 -14.0l2.21875 0l0 5.09375q0.953125 -1.125 2.578125 -1.125q1.796875 0 2.828125 1.34375q1.03125 1.328125 1.03125 3.734375l0 0.125zm-2.21875 -0.1875q0 -1.609375 -0.5625 -2.40625q-0.5625 -0.796875 -1.640625 -0.796875q-1.4375 0 -2.015625 1.25l0 4.0625q0.59375 1.28125 2.046875 1.28125q1.03125 0 1.59375 -0.765625q0.5625 -0.78125 0.578125 -2.34375l0 -0.28125zm9.597 2.34375q0 -0.59375 -0.484375 -0.90625q-0.484375 -0.3125 -1.625 -0.546875q-1.125 -0.234375 -1.875 -0.609375q-1.65625 -0.796875 -1.65625 -2.3125q0 -1.28125 1.0625 -2.125q1.078125 -0.859375 2.734375 -0.859375q1.78125 0 2.859375 0.875q1.09375 0.859375 1.09375 2.265625l-2.21875 0q0 -0.640625 -0.46875 -1.0625q-0.46875 -0.421875 -1.265625 -0.421875q-0.71875 0 -1.1875 0.34375q-0.453125 0.328125 -0.453125 0.890625q0 0.515625 0.421875 0.796875q0.4375 0.28125 1.734375 0.5625q1.296875 0.28125 2.03125 0.6875q0.75 0.390625 1.109375 0.953125q0.375 0.546875 0.375 1.34375q0 1.328125 -1.109375 2.15625q-1.109375 0.828125 -2.890625 0.828125q-1.203125 0 -2.15625 -0.4375q-0.953125 -0.4375 -1.484375 -1.203125q-0.515625 -0.765625 -0.515625 -1.65625l2.140625 0q0.046875 0.78125 0.59375 1.21875q0.546875 0.421875 1.453125 0.421875q0.875 0 1.328125 -0.328125q0.453125 -0.34375 0.453125 -0.875zm6.8787384 -9.578125l0 2.390625l1.734375 0l0 1.640625l-1.734375 0l0 5.5q0 0.5625 0.21875 0.8125q0.234375 0.25 0.796875 0.25q0.390625 0 0.78125 -0.078125l0 1.703125q-0.75 0.21875 -1.453125 0.21875q-2.5625 0 -2.5625 -2.8125l0 -5.59375l-1.609375 0l0 -1.640625l1.609375 0l0 -2.390625l2.21875 0zm8.5941925 4.421875q-0.4375 -0.078125 -0.90625 -0.078125q-1.515625 0 -2.046875 1.171875l0 6.734375l-2.21875 0l0 -9.859375l2.125 0l0.046875 1.109375q0.796875 -1.28125 2.21875 -1.28125q0.484375 0 0.78125 0.125l0 2.078125zm7.0041504 7.828125q-0.140625 -0.28125 -0.25 -0.921875q-1.046875 1.109375 -2.578125 1.109375q-1.484375 0 -2.4375 -0.84375q-0.9375 -0.859375 -0.9375 -2.109375q0 -1.578125 1.171875 -2.40625q1.171875 -0.84375 3.359375 -0.84375l1.359375 0l0 -0.65625q0 -0.765625 -0.4375 -1.21875q-0.421875 -0.46875 -1.296875 -0.46875q-0.765625 0 -1.25 0.390625q-0.46875 0.375 -0.46875 0.953125l-2.21875 0q0 -0.8125 0.53125 -1.515625q0.546875 -0.703125 1.46875 -1.09375q0.921875 -0.40625 2.0625 -0.40625q1.734375 0 2.75 0.875q1.03125 0.859375 1.0625 2.4375l0 4.4375q0 1.328125 0.375 2.125l0 0.15625l-2.265625 0zm-2.421875 -1.59375q0.65625 0 1.234375 -0.3125q0.578125 -0.328125 0.875 -0.859375l0 -1.859375l-1.203125 0q-1.234375 0 -1.859375 0.4375q-0.609375 0.421875 -0.609375 1.203125q0 0.640625 0.421875 1.015625q0.421875 0.375 1.140625 0.375zm10.687073 0.015625q0.828125 0 1.375 -0.484375q0.546875 -0.484375 0.578125 -1.203125l2.09375 0q-0.046875 0.921875 -0.59375 1.71875q-0.53125 0.796875 -1.453125 1.265625q-0.90625 0.46875 -1.984375 0.46875q-2.0625 0 -3.28125 -1.34375q-1.203125 -1.34375 -1.203125 -3.703125l0 -0.21875q0 -2.25 1.203125 -3.59375q1.203125 -1.359375 3.28125 -1.359375q1.75 0 2.859375 1.03125q1.109375 1.015625 1.171875 2.671875l-2.09375 0q-0.03125 -0.84375 -0.578125 -1.390625q-0.546875 -0.546875 -1.375 -0.546875q-1.078125 0 -1.671875 0.78125q-0.578125 0.78125 -0.578125 2.359375l0 0.359375q0 1.609375 0.578125 2.40625q0.578125 0.78125 1.671875 0.78125zm8.484131 -10.671875l0 2.390625l1.734375 0l0 1.640625l-1.734375 0l0 5.5q0 0.5625 0.21875 0.8125q0.234375 0.25 0.796875 0.25q0.390625 0 0.78125 -0.078125l0 1.703125q-0.75 0.21875 -1.453125 0.21875q-2.5625 0 -2.5625 -2.8125l0 -5.59375l-1.609375 0l0 -1.640625l1.609375 0l0 -2.390625l2.21875 0zm12.130661 10.671875q0.828125 0 1.375 -0.484375q0.546875 -0.484375 0.578125 -1.203125l2.09375 0q-0.046875 0.921875 -0.59375 1.71875q-0.53125 0.796875 -1.453125 1.265625q-0.90625 0.46875 -1.984375 0.46875q-2.0625 0 -3.28125 -1.34375q-1.203125 -1.34375 -1.203125 -3.703125l0 -0.21875q0 -2.25 1.203125 -3.59375q1.203125 -1.359375 3.28125 -1.359375q1.75 0 2.859375 1.03125q1.109375 1.015625 1.171875 2.671875l-2.09375 0q-0.03125 -0.84375 -0.578125 -1.390625q-0.546875 -0.546875 -1.375 -0.546875q-1.078125 0 -1.671875 0.78125q-0.578125 0.78125 -0.578125 2.359375l0 0.359375q0 1.609375 0.578125 2.40625q0.578125 0.78125 1.671875 0.78125zm8.062256 1.578125l-2.203125 0l0 -14.0l2.203125 0l0 14.0zm8.295532 0q-0.140625 -0.28125 -0.25 -0.921875q-1.046875 1.109375 -2.578125 1.109375q-1.484375 0 -2.4375 -0.84375q-0.93751526 -0.859375 -0.93751526 -2.109375q0 -1.578125 1.1718903 -2.40625q1.171875 -0.84375 3.359375 -0.84375l1.359375 0l0 -0.65625q0 -0.765625 -0.4375 -1.21875q-0.421875 -0.46875 -1.296875 -0.46875q-0.765625 0 -1.25 0.390625q-0.46875 0.375 -0.46875 0.953125l-2.2187653 0q0 -0.8125 0.53126526 -1.515625q0.546875 -0.703125 1.46875 -1.09375q0.921875 -0.40625 2.0625 -0.40625q1.734375 0 2.75 0.875q1.03125 0.859375 1.0625 2.4375l0 4.4375q0 1.328125 0.375 2.125l0 0.15625l-2.265625 0zm-2.421875 -1.59375q0.65625 0 1.234375 -0.3125q0.578125 -0.328125 0.875 -0.859375l0 -1.859375l-1.203125 0q-1.234375 0 -1.859375 0.4375q-0.609375 0.421875 -0.609375 1.203125q0 0.640625 0.421875 1.015625q0.421875 0.375 1.140625 0.375zm12.155823 -1.078125q0 -0.59375 -0.484375 -0.90625q-0.484375 -0.3125 -1.625 -0.546875q-1.125 -0.234375 -1.875 -0.609375q-1.65625 -0.796875 -1.65625 -2.3125q0 -1.28125 1.0625 -2.125q1.078125 -0.859375 2.734375 -0.859375q1.78125 0 2.859375 0.875q1.09375 0.859375 1.09375 2.265625l-2.21875 0q0 -0.640625 -0.46875 -1.0625q-0.46875 -0.421875 -1.265625 -0.421875q-0.71875 0 -1.1875 0.34375q-0.453125 0.328125 -0.453125 0.890625q0 0.515625 0.421875 0.796875q0.4375 0.28125 1.734375 0.5625q1.296875 0.28125 2.03125 0.6875q0.75 0.390625 1.109375 0.953125q0.375 0.546875 0.375 1.34375q0 1.328125 -1.109375 2.15625q-1.109375 0.828125 -2.890625 0.828125q-1.203125 0 -2.15625 -0.4375q-0.953125 -0.4375 -1.484375 -1.203125q-0.515625 -0.765625 -0.515625 -1.65625l2.140625 0q0.046875 0.78125 0.59375 1.21875q0.546875 0.421875 1.453125 0.421875q0.875 0 1.328125 -0.328125q0.453125 -0.34375 0.453125 -0.875zm9.628723 0q0 -0.59375 -0.484375 -0.90625q-0.484375 -0.3125 -1.625 -0.546875q-1.125 -0.234375 -1.875 -0.609375q-1.65625 -0.796875 -1.65625 -2.3125q0 -1.28125 1.0625 -2.125q1.078125 -0.859375 2.734375 -0.859375q1.78125 0 2.859375 0.875q1.09375 0.859375 1.09375 2.265625l-2.21875 0q0 -0.640625 -0.46875 -1.0625q-0.46875 -0.421875 -1.265625 -0.421875q-0.71875 0 -1.1875 0.34375q-0.453125 0.328125 -0.453125 0.890625q0 0.515625 0.421875 0.796875q0.4375 0.28125 1.734375 0.5625q1.296875 0.28125 2.03125 0.6875q0.75 0.390625 1.109375 0.953125q0.375 0.546875 0.375 1.34375q0 1.328125 -1.109375 2.15625q-1.109375 0.828125 -2.890625 0.828125q-1.203125 0 -2.15625 -0.4375q-0.953125 -0.4375 -1.484375 -1.203125q-0.515625 -0.765625 -0.515625 -1.65625l2.140625 0q0.046875 0.78125 0.59375 1.21875q0.546875 0.421875 1.453125 0.421875q0.875 0 1.328125 -0.328125q0.453125 -0.34375 0.453125 -0.875z" fill-rule="nonzero"/><path fill="#000000" fill-opacity="0.0" d="m492.79004 104.99475l200.78741 0l0 33.259842l-200.78741 0z" fill-rule="evenodd"/><path fill="#000000" d="m506.1338 115.279045l3.8125 10.171875l3.828125 -10.171875l2.96875 0l0 13.265617l-2.296875 0l0 -4.3749924l0.234375 -5.84375l-3.921875 10.218742l-1.640625 0l-3.90625 -10.218742l0.21875 5.84375l0 4.3749924l-2.296875 0l0 -13.265617l3.0 0zm17.458313 13.453117q-2.09375 0 -3.40625 -1.3281174q-1.3125 -1.328125 -1.3125 -3.53125l0 -0.28125q0 -1.46875 0.5625 -2.625q0.578125 -1.171875 1.609375 -1.8125q1.03125 -0.640625 2.296875 -0.640625q2.015625 0 3.109375 1.28125q1.09375 1.28125 1.09375 3.625l0 0.890625l-6.4375 0q0.109375 1.234375 0.8125 1.953125q0.71875 0.703125 1.8125 0.703125q1.515625 0 2.46875 -1.234375l1.203125 1.140625q-0.59375 0.875 -1.59375 1.3749924q-0.984375 0.484375 -2.21875 0.484375zm-0.265625 -8.453117q-0.90625 0 -1.46875 0.640625q-0.5625 0.640625 -0.703125 1.78125l4.203125 0l0 -0.171875q-0.0625 -1.109375 -0.59375 -1.671875q-0.515625 -0.578125 -1.4375 -0.578125zm8.714478 -3.984375l0 2.390625l1.734375 0l0 1.640625l-1.734375 0l0 5.5q0 0.5625 0.21875 0.8125q0.234375 0.25 0.796875 0.25q0.390625 0 0.78125 -0.078125l0 1.7031174q-0.75 0.21875 -1.453125 0.21875q-2.5625 0 -2.5625 -2.8124924l0 -5.59375l-1.609375 0l0 -1.640625l1.609375 0l0 -2.390625l2.21875 0zm5.6098022 3.46875q1.09375 -1.25 2.75 -1.25q3.140625 0 3.1875 3.59375l0 6.4374924l-2.203125 0l0 -6.3593674q0 -1.015625 -0.453125 -1.4375q-0.4375 -0.421875 -1.296875 -0.421875q-1.328125 0 -1.984375 1.171875l0 7.0468674l-2.203125 0l0 -13.999992l2.203125 0l0 5.21875zm7.763733 3.765625q0 -1.453125 0.578125 -2.609375q0.578125 -1.171875 1.609375 -1.78125q1.03125 -0.625 2.390625 -0.625q1.984375 0 3.234375 1.28125q1.25 1.28125 1.34375 3.40625l0.015625 0.515625q0 1.453125 -0.5625 2.609375q-0.5625 1.140625 -1.609375 1.7812424q-1.046875 0.625 -2.40625 0.625q-2.09375 0 -3.34375 -1.3906174q-1.25 -1.390625 -1.25 -3.703125l0 -0.109375zm2.21875 0.1875q0 1.515625 0.625 2.390625q0.625 0.859375 1.75 0.859375q1.125 0 1.734375 -0.875q0.625 -0.875 0.625 -2.5625q0 -1.5 -0.640625 -2.375q-0.640625 -0.875 -1.734375 -0.875q-1.09375 0 -1.734375 0.859375q-0.625 0.859375 -0.625 2.578125zm8.402954 -0.171875q0 -2.28125 1.046875 -3.65625q1.0625 -1.375 2.84375 -1.375q1.5625 0 2.53125 1.078125l0 -5.046875l2.21875 0l0 13.999992l-2.015625 0l-0.109375 -1.0156174q-0.984375 1.2031174 -2.640625 1.2031174q-1.734375 0 -2.8125 -1.3906174q-1.0625 -1.40625 -1.0625 -3.796875zm2.21875 0.1875q0 1.5 0.578125 2.34375q0.578125 0.84375 1.640625 0.84375q1.359375 0 1.984375 -1.203125l0 -4.21875q-0.609375 -1.171875 -1.96875 -1.171875q-1.078125 0 -1.65625 0.859375q-0.578125 0.84375 -0.578125 2.546875zm12.957642 -0.203125q0 -1.453125 0.578125 -2.609375q0.578125 -1.171875 1.609375 -1.78125q1.03125 -0.625 2.390625 -0.625q1.984375 0 3.234375 1.28125q1.25 1.28125 1.34375 3.40625l0.015625 0.515625q0 1.453125 -0.5625 2.609375q-0.5625 1.140625 -1.609375 1.7812424q-1.046875 0.625 -2.40625 0.625q-2.09375 0 -3.34375 -1.3906174q-1.25 -1.390625 -1.25 -3.703125l0 -0.109375zm2.21875 0.1875q0 1.515625 0.625 2.390625q0.625 0.859375 1.75 0.859375q1.125 0 1.734375 -0.875q0.625 -0.875 0.625 -2.5625q0 -1.5 -0.640625 -2.375q-0.640625 -0.875 -1.734375 -0.875q-1.09375 0 -1.734375 0.859375q-0.625 0.859375 -0.625 2.578125zm12.15686 2.015625l2.09375 -7.046875l2.28125 0l-3.421875 9.859367l-1.921875 0l-3.4375 -9.859367l2.296875 0l2.109375 7.046875zm9.968811 2.9999924q-2.09375 0 -3.40625 -1.3281174q-1.3125 -1.328125 -1.3125 -3.53125l0 -0.28125q0 -1.46875 0.5625 -2.625q0.578125 -1.171875 1.609375 -1.8125q1.03125 -0.640625 2.296875 -0.640625q2.015625 0 3.109375 1.28125q1.09375 1.28125 1.09375 3.625l0 0.890625l-6.4375 0q0.109375 1.234375 0.8125 1.953125q0.71875 0.703125 1.8125 0.703125q1.515625 0 2.46875 -1.234375l1.203125 1.140625q-0.59375 0.875 -1.59375 1.3749924q-0.984375 0.484375 -2.21875 0.484375zm-0.265625 -8.453117q-0.90625 0 -1.46875 0.640625q-0.5625 0.640625 -0.703125 1.78125l4.203125 0l0 -0.171875q-0.0625 -1.109375 -0.59375 -1.671875q-0.515625 -0.578125 -1.4375 -0.578125zm11.105103 0.4375q-0.4375 -0.078125 -0.90625 -0.078125q-1.515625 0 -2.046875 1.171875l0 6.7343674l-2.21875 0l0 -9.859367l2.125 0l0.046875 1.109375q0.796875 -1.28125 2.21875 -1.28125q0.484375 0 0.78125 0.125l0 2.078125zm3.746338 7.8281174l-2.203125 0l0 -13.999992l2.203125 0l0 13.999992zm1.9985962 -5.0156174q0 -1.453125 0.578125 -2.609375q0.578125 -1.171875 1.609375 -1.78125q1.03125 -0.625 2.390625 -0.625q1.984375 0 3.234375 1.28125q1.25 1.28125 1.34375 3.40625l0.015625 0.515625q0 1.453125 -0.5625 2.609375q-0.5625 1.140625 -1.609375 1.7812424q-1.046875 0.625 -2.40625 0.625q-2.09375 0 -3.34375 -1.3906174q-1.25 -1.390625 -1.25 -3.703125l0 -0.109375zm2.21875 0.1875q0 1.515625 0.625 2.390625q0.625 0.859375 1.75 0.859375q1.125 0 1.734375 -0.875q0.625 -0.875 0.625 -2.5625q0 -1.5 -0.640625 -2.375q-0.640625 -0.875 -1.734375 -0.875q-1.09375 0 -1.734375 0.859375q-0.625 0.859375 -0.625 2.578125zm14.699829 4.8281174q-0.140625 -0.28125 -0.25 -0.9218674q-1.046875 1.1093674 -2.578125 1.1093674q-1.484375 0 -2.4375 -0.8437424q-0.9375 -0.859375 -0.9375 -2.109375q0 -1.578125 1.171875 -2.40625q1.171875 -0.84375 3.359375 -0.84375l1.359375 0l0 -0.65625q0 -0.765625 -0.4375 -1.21875q-0.421875 -0.46875 -1.296875 -0.46875q-0.765625 0 -1.25 0.390625q-0.46875 0.375 -0.46875 0.953125l-2.21875 0q0 -0.8125 0.53125 -1.515625q0.546875 -0.703125 1.46875 -1.09375q0.921875 -0.40625 2.0625 -0.40625q1.734375 0 2.75 0.875q1.03125 0.859375 1.0625 2.4375l0 4.4375q0 1.328125 0.375 2.1249924l0 0.15625l-2.265625 0zm-2.421875 -1.5937424q0.65625 0 1.234375 -0.3125q0.578125 -0.328125 0.875 -0.859375l0 -1.859375l-1.203125 0q-1.234375 0 -1.859375 0.4375q-0.609375 0.421875 -0.609375 1.203125q0 0.640625 0.421875 1.015625q0.421875 0.375 1.140625 0.375zm6.2183228 -3.40625q0 -2.28125 1.046875 -3.65625q1.0625 -1.375 2.84375 -1.375q1.5625 0 2.53125 1.078125l0 -5.046875l2.21875 0l0 13.999992l-2.015625 0l-0.109375 -1.0156174q-0.984375 1.2031174 -2.640625 1.2031174q-1.734375 0 -2.8125 -1.3906174q-1.0625 -1.40625 -1.0625 -3.796875zm2.21875 0.1875q0 1.5 0.578125 2.34375q0.578125 0.84375 1.640625 0.84375q1.359375 0 1.984375 -1.203125l0 -4.21875q-0.609375 -1.171875 -1.96875 -1.171875q-1.078125 0 -1.65625 0.859375q-0.578125 0.84375 -0.578125 2.546875zm14.249329 2.140625q0 -0.59375 -0.484375 -0.90625q-0.484375 -0.3125 -1.625 -0.546875q-1.125 -0.234375 -1.875 -0.609375q-1.65625 -0.796875 -1.65625 -2.3125q0 -1.28125 1.0625 -2.125q1.078125 -0.859375 2.734375 -0.859375q1.78125 0 2.859375 0.875q1.09375 0.859375 1.09375 2.265625l-2.21875 0q0 -0.640625 -0.46875 -1.0625q-0.46875 -0.421875 -1.265625 -0.421875q-0.71875 0 -1.1875 0.34375q-0.453125 0.328125 -0.453125 0.890625q0 0.515625 0.421875 0.796875q0.4375 0.28125 1.734375 0.5625q1.296875 0.28125 2.03125 0.6875q0.75 0.390625 1.109375 0.953125q0.375 0.546875 0.375 1.34375q0 1.328125 -1.109375 2.15625q-1.109375 0.8281174 -2.890625 0.8281174q-1.203125 0 -2.15625 -0.4375q-0.953125 -0.43749237 -1.484375 -1.2031174q-0.515625 -0.765625 -0.515625 -1.65625l2.140625 0q0.046875 0.78125 0.59375 1.21875q0.546875 0.421875 1.453125 0.421875q0.875 0 1.328125 -0.328125q0.453125 -0.34375 0.453125 -0.875z" fill-rule="nonzero"/><path fill="#ff9f9f" d="m427.3517 52.55921l0 0c0 -9.184452 7.4102173 -16.629921 16.551178 -16.629921l0 0c4.3896484 0 8.599487 1.7520752 11.703461 4.8707924c3.1039429 3.1187134 4.8477173 7.3485985 4.8477173 11.759129l0 0c0 9.184452 -7.4102173 16.629921 -16.551178 16.629921l0 0c-9.140961 0 -16.551178 -7.445469 -16.551178 -16.629921z" fill-rule="evenodd"/><path stroke="#000000" stroke-width="4.0" stroke-linejoin="round" stroke-linecap="butt" d="m427.3517 52.55921l0 0c0 -9.184452 7.4102173 -16.629921 16.551178 -16.629921l0 0c4.3896484 0 8.599487 1.7520752 11.703461 4.8707924c3.1039429 3.1187134 4.8477173 7.3485985 4.8477173 11.759129l0 0c0 9.184452 -7.4102173 16.629921 -16.551178 16.629921l0 0c-9.140961 0 -16.551178 -7.445469 -16.551178 -16.629921z" fill-rule="evenodd"/><path fill="#000000" fill-opacity="0.0" d="m492.79004 35.929134l200.78741 0l0 33.259846l-200.78741 0z" fill-rule="evenodd"/><path fill="#000000" d="m513.66504 59.479053l-2.3125 0l-5.90625 -9.40625l0 9.40625l-2.3125 0l0 -13.265625l2.3125 0l5.921875 9.453125l0 -9.453125l2.296875 0l0 13.265625zm8.479553 -0.96875q-0.984375 1.15625 -2.765625 1.15625q-1.609375 0 -2.4375 -0.9375q-0.828125 -0.9375 -0.828125 -2.71875l0 -6.390625l2.21875 0l0 6.359375q0 1.875 1.5625 1.875q1.609375 0 2.171875 -1.15625l0 -7.078125l2.21875 0l0 9.859375l-2.09375 0l-0.046875 -0.96875zm6.476013 -8.890625l0.0625 1.03125q1.03125 -1.203125 2.84375 -1.203125q1.96875 0 2.703125 1.5q1.078125 -1.5 3.015625 -1.5q1.640625 0 2.4375 0.90625q0.796875 0.890625 0.8125 2.640625l0 6.484375l-2.21875 0l0 -6.40625q0 -0.9375 -0.40625 -1.375q-0.40625 -0.4375 -1.359375 -0.4375q-0.75 0 -1.234375 0.40625q-0.46875 0.390625 -0.671875 1.046875l0.015625 6.765625l-2.21875 0l0 -6.484375q-0.046875 -1.734375 -1.765625 -1.734375q-1.328125 0 -1.890625 1.078125l0 7.140625l-2.21875 0l0 -9.859375l2.09375 0zm22.795593 5.03125q0 2.296875 -1.03125 3.65625q-1.015625 1.359375 -2.8125 1.359375q-1.734375 0 -2.6875 -1.25l-0.109375 1.0625l-2.015625 0l0 -14.0l2.21875 0l0 5.09375q0.953125 -1.125 2.578125 -1.125q1.796875 0 2.828125 1.34375q1.03125 1.328125 1.03125 3.734375l0 0.125zm-2.21875 -0.1875q0 -1.609375 -0.5625 -2.40625q-0.5625 -0.796875 -1.640625 -0.796875q-1.4375 0 -2.015625 1.25l0 4.0625q0.59375 1.28125 2.046875 1.28125q1.03125 0 1.59375 -0.765625q0.5625 -0.78125 0.578125 -2.34375l0 -0.28125zm8.409546 5.203125q-2.09375 0 -3.40625 -1.328125q-1.3125 -1.328125 -1.3125 -3.53125l0 -0.28125q0 -1.46875 0.5625 -2.625q0.578125 -1.171875 1.609375 -1.8125q1.03125 -0.640625 2.296875 -0.640625q2.015625 0 3.109375 1.28125q1.09375 1.28125 1.09375 3.625l0 0.890625l-6.4375 0q0.109375 1.234375 0.8125 1.953125q0.71875 0.703125 1.8125 0.703125q1.515625 0 2.46875 -1.234375l1.203125 1.140625q-0.59375 0.875 -1.59375 1.375q-0.984375 0.484375 -2.21875 0.484375zm-0.265625 -8.453125q-0.90625 0 -1.46875 0.640625q-0.5625 0.640625 -0.703125 1.78125l4.203125 0l0 -0.171875q-0.0625 -1.109375 -0.59375 -1.671875q-0.515625 -0.578125 -1.4375 -0.578125zm11.1050415 0.4375q-0.4375 -0.078125 -0.90625 -0.078125q-1.515625 0 -2.046875 1.171875l0 6.734375l-2.21875 0l0 -9.859375l2.125 0l0.046875 1.109375q0.796875 -1.28125 2.21875 -1.28125q0.484375 0 0.78125 0.125l0 2.078125zm5.626587 2.8125q0 -1.453125 0.578125 -2.609375q0.578125 -1.171875 1.609375 -1.78125q1.03125 -0.625 2.390625 -0.625q1.984375 0 3.234375 1.28125q1.25 1.28125 1.34375 3.40625l0.015625 0.515625q0 1.453125 -0.5625 2.609375q-0.5625 1.140625 -1.609375 1.78125q-1.046875 0.625 -2.40625 0.625q-2.09375 0 -3.34375 -1.390625q-1.25 -1.390625 -1.25 -3.703125l0 -0.109375zm2.21875 0.1875q0 1.515625 0.625 2.390625q0.625 0.859375 1.75 0.859375q1.125 0 1.734375 -0.875q0.625 -0.875 0.625 -2.5625q0 -1.5 -0.640625 -2.375q-0.640625 -0.875 -1.734375 -0.875q-1.09375 0 -1.734375 0.859375q-0.625 0.859375 -0.625 2.578125zm9.590393 4.828125l0 -8.21875l-1.5 0l0 -1.640625l1.5 0l0 -0.90625q0 -1.625 0.90625 -2.515625q0.921875 -0.90625 2.5625 -0.90625q0.578125 0 1.234375 0.171875l-0.046875 1.734375q-0.375 -0.078125 -0.84375 -0.078125q-1.59375 0 -1.59375 1.625l0 0.875l2.0 0l0 1.640625l-2.0 0l0 8.21875l-2.21875 0zm13.962463 -2.8125l2.09375 -7.046875l2.28125 0l-3.421875 9.859375l-1.921875 0l-3.4375 -9.859375l2.296875 0l2.109375 7.046875zm11.497498 2.8125q-0.140625 -0.28125 -0.25 -0.921875q-1.046875 1.109375 -2.578125 1.109375q-1.484375 0 -2.4375 -0.84375q-0.9375 -0.859375 -0.9375 -2.109375q0 -1.578125 1.171875 -2.40625q1.171875 -0.84375 3.359375 -0.84375l1.359375 0l0 -0.65625q0 -0.765625 -0.4375 -1.21875q-0.421875 -0.46875 -1.296875 -0.46875q-0.765625 0 -1.25 0.390625q-0.46875 0.375 -0.46875 0.953125l-2.21875 0q0 -0.8125 0.53125 -1.515625q0.546875 -0.703125 1.46875 -1.09375q0.921875 -0.40625 2.0625 -0.40625q1.734375 0 2.75 0.875q1.03125 0.859375 1.0625 2.4375l0 4.4375q0 1.328125 0.375 2.125l0 0.15625l-2.265625 0zm-2.421875 -1.59375q0.65625 0 1.234375 -0.3125q0.578125 -0.328125 0.875 -0.859375l0 -1.859375l-1.203125 0q-1.234375 0 -1.859375 0.4375q-0.609375 0.421875 -0.609375 1.203125q0 0.640625 0.421875 1.015625q0.421875 0.375 1.140625 0.375zm11.796448 -6.234375q-0.4375 -0.078125 -0.90625 -0.078125q-1.515625 0 -2.046875 1.171875l0 6.734375l-2.21875 0l0 -9.859375l2.125 0l0.046875 1.109375q0.796875 -1.28125 2.21875 -1.28125q0.484375 0 0.78125 0.125l0 2.078125zm3.746338 7.828125l-2.203125 0l0 -9.859375l2.203125 0l0 9.859375zm-2.34375 -12.421875q0 -0.5 0.3125 -0.828125q0.328125 -0.34375 0.921875 -0.34375q0.609375 0 0.9375 0.34375q0.328125 0.328125 0.328125 0.828125q0 0.5 -0.328125 0.84375q-0.328125 0.328125 -0.9375 0.328125q-0.59375 0 -0.921875 -0.328125q-0.3125 -0.34375 -0.3125 -0.84375zm10.639221 12.421875q-0.140625 -0.28125 -0.25 -0.921875q-1.046875 1.109375 -2.578125 1.109375q-1.484375 0 -2.4375 -0.84375q-0.9375 -0.859375 -0.9375 -2.109375q0 -1.578125 1.171875 -2.40625q1.171875 -0.84375 3.359375 -0.84375l1.359375 0l0 -0.65625q0 -0.765625 -0.4375 -1.21875q-0.421875 -0.46875 -1.296875 -0.46875q-0.765625 0 -1.25 0.390625q-0.46875 0.375 -0.46875 0.953125l-2.21875 0q0 -0.8125 0.53125 -1.515625q0.546875 -0.703125 1.46875 -1.09375q0.921875 -0.40625 2.0625 -0.40625q1.734375 0 2.75 0.875q1.03125 0.859375 1.0625 2.4375l0 4.4375q0 1.328125 0.375 2.125l0 0.15625l-2.265625 0zm-2.421875 -1.59375q0.65625 0 1.234375 -0.3125q0.578125 -0.328125 0.875 -0.859375l0 -1.859375l-1.203125 0q-1.234375 0 -1.859375 0.4375q-0.609375 0.421875 -0.609375 1.203125q0 0.640625 0.421875 1.015625q0.421875 0.375 1.140625 0.375zm8.687073 -8.265625l0.0625 1.140625q1.09375 -1.3125 2.875 -1.3125q3.078125 0 3.125 3.515625l0 6.515625l-2.203125 0l0 -6.390625q0 -0.9375 -0.40625 -1.375q-0.40625 -0.453125 -1.328125 -0.453125q-1.34375 0 -2.0 1.203125l0 7.015625l-2.203125 0l0 -9.859375l2.078125 0zm11.094482 -2.390625l0 2.390625l1.734375 0l0 1.640625l-1.734375 0l0 5.5q0 0.5625 0.21875 0.8125q0.234375 0.25 0.796875 0.25q0.390625 0 0.78125 -0.078125l0 1.703125q-0.75 0.21875 -1.453125 0.21875q-2.5625 0 -2.5625 -2.8125l0 -5.59375l-1.609375 0l0 -1.640625l1.609375 0l0 -2.390625l2.21875 0zm8.953552 9.578125q0 -0.59375 -0.484375 -0.90625q-0.484375 -0.3125 -1.625 -0.546875q-1.125 -0.234375 -1.875 -0.609375q-1.65625 -0.796875 -1.65625 -2.3125q0 -1.28125 1.0625 -2.125q1.078125 -0.859375 2.734375 -0.859375q1.78125 0 2.859375 0.875q1.09375 0.859375 1.09375 2.265625l-2.21875 0q0 -0.640625 -0.46875 -1.0625q-0.46875 -0.421875 -1.265625 -0.421875q-0.71875 0 -1.1875 0.34375q-0.453125 0.328125 -0.453125 0.890625q0 0.515625 0.421875 0.796875q0.4375 0.28125 1.734375 0.5625q1.296875 0.28125 2.03125 0.6875q0.75 0.390625 1.109375 0.953125q0.375 0.546875 0.375 1.34375q0 1.328125 -1.109375 2.15625q-1.109375 0.828125 -2.890625 0.828125q-1.203125 0 -2.15625 -0.4375q-0.953125 -0.4375 -1.484375 -1.203125q-0.515625 -0.765625 -0.515625 -1.65625l2.140625 0q0.046875 0.78125 0.59375 1.21875q0.546875 0.421875 1.453125 0.421875q0.875 0 1.328125 -0.328125q0.453125 -0.34375 0.453125 -0.875z" fill-rule="nonzero"/><path fill="#000000" fill-opacity="0.0" d="m492.79004 174.06036l221.7638 0l0 33.259842l-221.7638 0z" fill-rule="evenodd"/><path fill="#000000" d="m513.2588 193.29779q-0.203125 2.109375 -1.578125 3.3125q-1.359375 1.1875 -3.625 1.1875q-1.578125 0 -2.796875 -0.75q-1.203125 -0.765625 -1.859375 -2.140625q-0.65625 -1.390625 -0.6875 -3.21875l0 -1.234375q0 -1.875 0.671875 -3.296875q0.671875 -1.4375 1.90625 -2.21875q1.25 -0.78125 2.875 -0.78125q2.203125 0 3.53125 1.203125q1.34375 1.1875 1.5625 3.375l-2.296875 0q-0.15625 -1.4375 -0.828125 -2.0625q-0.671875 -0.640625 -1.96875 -0.640625q-1.5 0 -2.3125 1.109375q-0.796875 1.09375 -0.8125 3.203125l0 1.1875q0 2.140625 0.765625 3.28125q0.765625 1.125 2.25 1.125q1.359375 0 2.03125 -0.609375q0.6875 -0.609375 0.875 -2.03125l2.296875 0zm1.4293823 -0.703125q0 -1.453125 0.578125 -2.609375q0.578125 -1.171875 1.609375 -1.78125q1.03125 -0.625 2.390625 -0.625q1.984375 0 3.234375 1.28125q1.25 1.28125 1.34375 3.40625l0.015625 0.515625q0 1.453125 -0.5625 2.609375q-0.5625 1.140625 -1.609375 1.78125q-1.046875 0.625 -2.40625 0.625q-2.09375 0 -3.34375 -1.390625q-1.25 -1.390625 -1.25 -3.703125l0 -0.109375zm2.21875 0.1875q0 1.515625 0.625 2.390625q0.625 0.859375 1.75 0.859375q1.125 0 1.734375 -0.875q0.625 -0.875 0.625 -2.5625q0 -1.5 -0.640625 -2.375q-0.640625 -0.875 -1.734375 -0.875q-1.09375 0 -1.734375 0.859375q-0.625 0.859375 -0.625 2.578125zm10.871704 -5.03125l0.0625 1.140625q1.09375 -1.3125 2.875 -1.3125q3.078125 0 3.125 3.515625l0 6.515625l-2.203125 0l0 -6.390625q0 -0.9375 -0.40625 -1.375q-0.40625 -0.453125 -1.328125 -0.453125q-1.34375 0 -2.0 1.203125l0 7.015625l-2.203125 0l0 -9.859375l2.078125 0zm13.844421 7.1875q0 -0.59375 -0.484375 -0.90625q-0.484375 -0.3125 -1.625 -0.546875q-1.125 -0.234375 -1.875 -0.609375q-1.65625 -0.796875 -1.65625 -2.3125q0 -1.28125 1.0625 -2.125q1.078125 -0.859375 2.734375 -0.859375q1.78125 0 2.859375 0.875q1.09375 0.859375 1.09375 2.265625l-2.21875 0q0 -0.640625 -0.46875 -1.0625q-0.46875 -0.421875 -1.265625 -0.421875q-0.71875 0 -1.1875 0.34375q-0.453125 0.328125 -0.453125 0.890625q0 0.515625 0.421875 0.796875q0.4375 0.28125 1.734375 0.5625q1.296875 0.28125 2.03125 0.6875q0.75 0.390625 1.109375 0.953125q0.375 0.546875 0.375 1.34375q0 1.328125 -1.109375 2.15625q-1.109375 0.828125 -2.890625 0.828125q-1.203125 0 -2.15625 -0.4375q-0.953125 -0.4375 -1.484375 -1.203125q-0.515625 -0.765625 -0.515625 -1.65625l2.140625 0q0.046875 0.78125 0.59375 1.21875q0.546875 0.421875 1.453125 0.421875q0.875 0 1.328125 -0.328125q0.453125 -0.34375 0.453125 -0.875zm6.878784 -9.578125l0 2.390625l1.734375 0l0 1.640625l-1.734375 0l0 5.5q0 0.5625 0.21875 0.8125q0.234375 0.25 0.796875 0.25q0.390625 0 0.78125 -0.078125l0 1.703125q-0.75 0.21875 -1.453125 0.21875q-2.5625 0 -2.5625 -2.8125l0 -5.59375l-1.609375 0l0 -1.640625l1.609375 0l0 -2.390625l2.21875 0zm8.594177 4.421875q-0.4375 -0.078125 -0.90625 -0.078125q-1.515625 0 -2.046875 1.171875l0 6.734375l-2.21875 0l0 -9.859375l2.125 0l0.046875 1.109375q0.796875 -1.28125 2.21875 -1.28125q0.484375 0 0.78125 0.125l0 2.078125zm7.371338 6.859375q-0.984375 1.15625 -2.765625 1.15625q-1.609375 0 -2.4375 -0.9375q-0.828125 -0.9375 -0.828125 -2.71875l0 -6.390625l2.21875 0l0 6.359375q0 1.875 1.5625 1.875q1.609375 0 2.171875 -1.15625l0 -7.078125l2.21875 0l0 9.859375l-2.09375 0l-0.046875 -0.96875zm8.444702 -0.609375q0.828125 0 1.375 -0.484375q0.546875 -0.484375 0.578125 -1.203125l2.09375 0q-0.046875 0.921875 -0.59375 1.71875q-0.53125 0.796875 -1.453125 1.265625q-0.90625 0.46875 -1.984375 0.46875q-2.0625 0 -3.28125 -1.34375q-1.203125 -1.34375 -1.203125 -3.703125l0 -0.21875q0 -2.25 1.203125 -3.59375q1.203125 -1.359375 3.28125 -1.359375q1.75 0 2.859375 1.03125q1.109375 1.015625 1.171875 2.671875l-2.09375 0q-0.03125 -0.84375 -0.578125 -1.390625q-0.546875 -0.546875 -1.375 -0.546875q-1.078125 0 -1.671875 0.78125q-0.578125 0.78125 -0.578125 2.359375l0 0.359375q0 1.609375 0.578125 2.40625q0.578125 0.78125 1.671875 0.78125zm8.484131 -10.671875l0 2.390625l1.734375 0l0 1.640625l-1.734375 0l0 5.5q0 0.5625 0.21875 0.8125q0.234375 0.25 0.796875 0.25q0.390625 0 0.78125 -0.078125l0 1.703125q-0.75 0.21875 -1.453125 0.21875q-2.5625 0 -2.5625 -2.8125l0 -5.59375l-1.609375 0l0 -1.640625l1.609375 0l0 -2.390625l2.21875 0zm2.7426758 7.234375q0 -1.453125 0.578125 -2.609375q0.578125 -1.171875 1.609375 -1.78125q1.03125 -0.625 2.390625 -0.625q1.984375 0 3.234375 1.28125q1.25 1.28125 1.34375 3.40625l0.015625 0.515625q0 1.453125 -0.5625 2.609375q-0.5625 1.140625 -1.609375 1.78125q-1.046875 0.625 -2.40625 0.625q-2.09375 0 -3.34375 -1.390625q-1.25 -1.390625 -1.25 -3.703125l0 -0.109375zm2.21875 0.1875q0 1.515625 0.625 2.390625q0.625 0.859375 1.75 0.859375q1.125 0 1.734375 -0.875q0.625 -0.875 0.625 -2.5625q0 -1.5 -0.640625 -2.375q-0.640625 -0.875 -1.734375 -0.875q-1.09375 0 -1.734375 0.859375q-0.625 0.859375 -0.625 2.578125zm13.981018 -3.0q-0.4375 -0.078125 -0.90625 -0.078125q-1.515625 0 -2.046875 1.171875l0 6.734375l-2.21875 0l0 -9.859375l2.125 0l0.046875 1.109375q0.796875 -1.28125 2.21875 -1.28125q0.484375 0 0.78125 0.125l0 2.078125zm5.626587 2.8125q0 -1.453125 0.578125 -2.609375q0.578125 -1.171875 1.609375 -1.78125q1.03125 -0.625 2.390625 -0.625q1.984375 0 3.234375 1.28125q1.25 1.28125 1.34375 3.40625l0.015625 0.515625q0 1.453125 -0.5625 2.609375q-0.5625 1.140625 -1.609375 1.78125q-1.046875 0.625 -2.40625 0.625q-2.09375 0 -3.34375 -1.390625q-1.25 -1.390625 -1.25 -3.703125l0 -0.109375zm2.21875 0.1875q0 1.515625 0.625 2.390625q0.625 0.859375 1.75 0.859375q1.125 0 1.734375 -0.875q0.625 -0.875 0.625 -2.5625q0 -1.5 -0.640625 -2.375q-0.640625 -0.875 -1.734375 -0.875q-1.09375 0 -1.734375 0.859375q-0.625 0.859375 -0.625 2.578125zm12.156799 2.015625l2.09375 -7.046875l2.28125 0l-3.421875 9.859375l-1.921875 0l-3.4375 -9.859375l2.296875 0l2.109375 7.046875zm9.968811 3.0q-2.09375 0 -3.40625 -1.328125q-1.3125 -1.328125 -1.3125 -3.53125l0 -0.28125q0 -1.46875 0.5625 -2.625q0.578125 -1.171875 1.609375 -1.8125q1.03125 -0.640625 2.296875 -0.640625q2.015625 0 3.109375 1.28125q1.09375 1.28125 1.09375 3.625l0 0.890625l-6.4375 0q0.109375 1.234375 0.8125 1.953125q0.71875 0.703125 1.8125 0.703125q1.515625 0 2.46875 -1.234375l1.203125 1.140625q-0.59375 0.875 -1.59375 1.375q-0.984375 0.484375 -2.21875 0.484375zm-0.265625 -8.453125q-0.90625 0 -1.46875 0.640625q-0.5625 0.640625 -0.703125 1.78125l4.203125 0l0 -0.171875q-0.0625 -1.109375 -0.59375 -1.671875q-0.515625 -0.578125 -1.4375 -0.578125zm11.105103 0.4375q-0.4375 -0.078125 -0.90625 -0.078125q-1.515625 0 -2.046875 1.171875l0 6.734375l-2.21875 0l0 -9.859375l2.125 0l0.046875 1.109375q0.796875 -1.28125 2.21875 -1.28125q0.484375 0 0.78125 0.125l0 2.078125zm3.746338 7.828125l-2.203125 0l0 -14.0l2.203125 0l0 14.0zm1.9986572 -5.015625q0 -1.453125 0.578125 -2.609375q0.578125 -1.171875 1.609375 -1.78125q1.03125 -0.625 2.390625 -0.625q1.984375 0 3.234375 1.28125q1.25 1.28125 1.34375 3.40625l0.015625 0.515625q0 1.453125 -0.5625 2.609375q-0.5625 1.140625 -1.609375 1.78125q-1.046875 0.625 -2.40625 0.625q-2.09375 0 -3.34375 -1.390625q-1.25 -1.390625 -1.25 -3.703125l0 -0.109375zm2.21875 0.1875q0 1.515625 0.625 2.390625q0.625 0.859375 1.75 0.859375q1.125 0 1.734375 -0.875q0.625 -0.875 0.625 -2.5625q0 -1.5 -0.640625 -2.375q-0.640625 -0.875 -1.734375 -0.875q-1.09375 0 -1.734375 0.859375q-0.625 0.859375 -0.625 2.578125zm14.699768 4.828125q-0.140625 -0.28125 -0.25 -0.921875q-1.046875 1.109375 -2.578125 1.109375q-1.484375 0 -2.4375 -0.84375q-0.9375 -0.859375 -0.9375 -2.109375q0 -1.578125 1.171875 -2.40625q1.171875 -0.84375 3.359375 -0.84375l1.359375 0l0 -0.65625q0 -0.765625 -0.4375 -1.21875q-0.421875 -0.46875 -1.296875 -0.46875q-0.765625 0 -1.25 0.390625q-0.46875 0.375 -0.46875 0.953125l-2.21875 0q0 -0.8125 0.53125 -1.515625q0.546875 -0.703125 1.46875 -1.09375q0.921875 -0.40625 2.0625 -0.40625q1.734375 0 2.75 0.875q1.03125 0.859375 1.0625 2.4375l0 4.4375q0 1.328125 0.375 2.125l0 0.15625l-2.265625 0zm-2.421875 -1.59375q0.65625 0 1.234375 -0.3125q0.578125 -0.328125 0.875 -0.859375l0 -1.859375l-1.203125 0q-1.234375 0 -1.859375 0.4375q-0.609375 0.421875 -0.609375 1.203125q0 0.640625 0.421875 1.015625q0.421875 0.375 1.140625 0.375zm6.2183228 -3.40625q0 -2.28125 1.046875 -3.65625q1.0625 -1.375 2.84375 -1.375q1.5625 0 2.53125 1.078125l0 -5.046875l2.21875 0l0 14.0l-2.015625 0l-0.109375 -1.015625q-0.984375 1.203125 -2.640625 1.203125q-1.734375 0 -2.8125 -1.390625q-1.0625 -1.40625 -1.0625 -3.796875zm2.21875 0.1875q0 1.5 0.578125 2.34375q0.578125 0.84375 1.640625 0.84375q1.359375 0 1.984375 -1.203125l0 -4.21875q-0.609375 -1.171875 -1.96875 -1.171875q-1.078125 0 -1.65625 0.859375q-0.578125 0.84375 -0.578125 2.546875zm14.249329 2.140625q0 -0.59375 -0.484375 -0.90625q-0.484375 -0.3125 -1.625 -0.546875q-1.125 -0.234375 -1.875 -0.609375q-1.65625 -0.796875 -1.65625 -2.3125q0 -1.28125 1.0625 -2.125q1.078125 -0.859375 2.734375 -0.859375q1.78125 0 2.859375 0.875q1.09375 0.859375 1.09375 2.265625l-2.21875 0q0 -0.640625 -0.46875 -1.0625q-0.46875 -0.421875 -1.265625 -0.421875q-0.71875 0 -1.1875 0.34375q-0.453125 0.328125 -0.453125 0.890625q0 0.515625 0.421875 0.796875q0.4375 0.28125 1.734375 0.5625q1.296875 0.28125 2.03125 0.6875q0.75 0.390625 1.109375 0.953125q0.375 0.546875 0.375 1.34375q0 1.328125 -1.109375 2.15625q-1.109375 0.828125 -2.890625 0.828125q-1.203125 0 -2.15625 -0.4375q-0.953125 -0.4375 -1.484375 -1.203125q-0.515625 -0.765625 -0.515625 -1.65625l2.140625 0q0.046875 0.78125 0.59375 1.21875q0.546875 0.421875 1.453125 0.421875q0.875 0 1.328125 -0.328125q0.453125 -0.34375 0.453125 -0.875z" fill-rule="nonzero"/><path fill="#ff9f9f" d="m853.4829 54.674698l0 0c0 -9.184452 7.4102173 -16.629921 16.551208 -16.629921l0 0c4.3896484 0 8.599487 1.7520752 11.70343 4.8707924c3.1039429 3.1187134 4.8477783 7.3485985 4.8477783 11.759129l0 0c0 9.184452 -7.4102173 16.629921 -16.551208 16.629921l0 0c-9.140991 0 -16.551208 -7.445469 -16.551208 -16.629921z" fill-rule="evenodd"/><path fill="#000000" d="m872.00256 55.456573q-1.921875 -0.546875 -2.8125 -1.359375q-0.875 -0.8125 -0.875 -2.0q0 -1.34375 1.078125 -2.21875q1.078125 -0.875 2.796875 -0.875q1.171875 0 2.078125 0.453125q0.921875 0.453125 1.421875 1.25q0.515625 0.796875 0.515625 1.734375l-1.515625 0q0 -1.03125 -0.65625 -1.609375q-0.65625 -0.59375 -1.84375 -0.59375q-1.109375 0 -1.734375 0.484375q-0.625 0.484375 -0.625 1.359375q0 0.6875 0.59375 1.171875q0.59375 0.484375 2.0 0.890625q1.421875 0.390625 2.21875 0.875q0.8125 0.46875 1.1875 1.109375q0.390625 0.640625 0.390625 1.515625q0 1.375 -1.078125 2.21875q-1.078125 0.828125 -2.875 0.828125q-1.171875 0 -2.1875 -0.453125q-1.015625 -0.453125 -1.578125 -1.234375q-0.546875 -0.78125 -0.546875 -1.765625l1.515625 0q0 1.03125 0.75 1.625q0.765625 0.59375 2.046875 0.59375q1.1875 0 1.8125 -0.484375q0.640625 -0.484375 0.640625 -1.3125q0 -0.84375 -0.59375 -1.296875q-0.578125 -0.453125 -2.125 -0.90625z" fill-rule="nonzero"/><path fill="#000000" fill-opacity="0.0" d="m918.92126 38.04462l200.78735 0l0 33.25984l-200.78735 0z" fill-rule="evenodd"/><path fill="#000000" d="m936.2025 58.172665q0 -0.875 -0.625 -1.34375q-0.609375 -0.46875 -2.21875 -0.953125q-1.59375 -0.484375 -2.546875 -1.078125q-1.8125 -1.140625 -1.8125 -2.96875q0 -1.609375 1.3125 -2.640625q1.3125 -1.046875 3.390625 -1.046875q1.390625 0 2.46875 0.515625q1.09375 0.515625 1.703125 1.453125q0.625 0.9375 0.625 2.09375l-2.296875 0q0 -1.046875 -0.65625 -1.625q-0.640625 -0.59375 -1.859375 -0.59375q-1.125 0 -1.75 0.484375q-0.625 0.484375 -0.625 1.34375q0 0.734375 0.671875 1.21875q0.671875 0.484375 2.21875 0.953125q1.546875 0.453125 2.484375 1.046875q0.9375 0.59375 1.375 1.359375q0.4375 0.75 0.4375 1.765625q0 1.65625 -1.265625 2.640625q-1.265625 0.984375 -3.453125 0.984375q-1.4375 0 -2.640625 -0.53125q-1.203125 -0.546875 -1.875 -1.484375q-0.671875 -0.9375 -0.671875 -2.1875l2.3125 0q0 1.140625 0.734375 1.765625q0.75 0.609375 2.140625 0.609375q1.203125 0 1.8125 -0.484375q0.609375 -0.484375 0.609375 -1.296875zm6.8843384 -8.828125l0 2.390625l1.734375 0l0 1.640625l-1.734375 0l0 5.5q0 0.5625 0.21875 0.8125q0.234375 0.25 0.796875 0.25q0.390625 0 0.78125 -0.078125l0 1.703125q-0.75 0.21875 -1.453125 0.21875q-2.5625 0 -2.5625 -2.8125l0 -5.59375l-1.609375 0l0 -1.640625l1.609375 0l0 -2.390625l2.21875 0zm8.594177 4.421875q-0.4375 -0.078125 -0.90625 -0.078125q-1.515625 0 -2.046875 1.171875l0 6.734375l-2.21875 0l0 -9.859375l2.125 0l0.046875 1.109375q0.796875 -1.28125 2.21875 -1.28125q0.484375 0 0.78125 0.125l0 2.078125zm7.0041504 7.828125q-0.140625 -0.28125 -0.25 -0.921875q-1.046875 1.109375 -2.578125 1.109375q-1.484375 0 -2.4375 -0.84375q-0.9375 -0.859375 -0.9375 -2.109375q0 -1.578125 1.171875 -2.40625q1.171875 -0.84375 3.359375 -0.84375l1.359375 0l0 -0.65625q0 -0.765625 -0.4375 -1.21875q-0.421875 -0.46875 -1.296875 -0.46875q-0.765625 0 -1.25 0.390625q-0.46875 0.375 -0.46875 0.953125l-2.21875 0q0 -0.8125 0.53125 -1.515625q0.546875 -0.703125 1.46875 -1.09375q0.921875 -0.40625 2.0625 -0.40625q1.734375 0 2.75 0.875q1.03125 0.859375 1.0625 2.4375l0 4.4375q0 1.328125 0.375 2.125l0 0.15625l-2.265625 0zm-2.421875 -1.59375q0.65625 0 1.234375 -0.3125q0.578125 -0.328125 0.875 -0.859375l0 -1.859375l-1.203125 0q-1.234375 0 -1.859375 0.4375q-0.609375 0.421875 -0.609375 1.203125q0 0.640625 0.421875 1.015625q0.421875 0.375 1.140625 0.375zm9.405823 -10.65625l0 2.390625l1.734375 0l0 1.640625l-1.734375 0l0 5.5q0 0.5625 0.21875 0.8125q0.234375 0.25 0.796875 0.25q0.390625 0 0.78125 -0.078125l0 1.703125q-0.75 0.21875 -1.453125 0.21875q-2.5625 0 -2.5625 -2.8125l0 -5.59375l-1.609375 0l0 -1.640625l1.609375 0l0 -2.390625l2.21875 0zm7.7660522 12.4375q-2.09375 0 -3.40625 -1.328125q-1.3125 -1.328125 -1.3125 -3.53125l0 -0.28125q0 -1.46875 0.5625 -2.625q0.578125 -1.171875 1.609375 -1.8125q1.03125 -0.640625 2.296875 -0.640625q2.015625 0 3.109375 1.28125q1.09375 1.28125 1.09375 3.625l0 0.890625l-6.4375 0q0.109375 1.234375 0.8125 1.953125q0.71875 0.703125 1.8125 0.703125q1.515625 0 2.46875 -1.234375l1.203125 1.140625q-0.59375 0.875 -1.59375 1.375q-0.984375 0.484375 -2.21875 0.484375zm-0.265625 -8.453125q-0.90625 0 -1.46875 0.640625q-0.5625 0.640625 -0.703125 1.78125l4.203125 0l0 -0.171875q-0.0625 -1.109375 -0.59375 -1.671875q-0.515625 -0.578125 -1.4375 -0.578125zm5.5582275 3.265625q0 -2.296875 1.078125 -3.65625q1.078125 -1.375 2.859375 -1.375q1.6875 0 2.65625 1.171875l0.09375 -1.0l2.0 0l0 9.5625q0 1.9375 -1.21875 3.0468712q-1.203125 1.125 -3.25 1.125q-1.078125 0 -2.109375 -0.453125q-1.03125 -0.4375 -1.578125 -1.1718712l1.046875 -1.328125q1.03125 1.203125 2.515625 1.203125q1.109375 0 1.734375 -0.59375q0.640625 -0.59375 0.640625 -1.75l0 -0.671875q-0.953125 1.078125 -2.546875 1.078125q-1.734375 0 -2.828125 -1.375q-1.09375 -1.375 -1.09375 -3.8125zm2.203125 0.1875q0 1.484375 0.59375 2.34375q0.609375 0.84375 1.6875 0.84375q1.34375 0 1.984375 -1.140625l0 -4.34375q-0.625 -1.109375 -1.96875 -1.109375q-1.09375 0 -1.703125 0.859375q-0.59375 0.859375 -0.59375 2.546875zm12.201111 1.640625l2.015625 -6.6875l2.359375 0l-3.921875 11.359375q-0.90625 2.4843712 -3.0625 2.4843712q-0.484375 0 -1.0625 -0.171875l0 -1.7031212l0.421875 0.015625q0.828125 0 1.25 -0.3125q0.421875 -0.296875 0.671875 -1.015625l0.328125 -0.84375l-3.46875 -9.8125l2.390625 0l2.078125 6.6875zm18.915527 -1.65625q0 2.28125 -1.046875 3.65625q-1.03125 1.359375 -2.78125 1.359375q-1.625 0 -2.59375 -1.078125l0 4.687496l-2.21875 0l0 -13.656246l2.046875 0l0.09375 1.0q0.96875 -1.171875 2.640625 -1.171875q1.8125 0 2.828125 1.34375q1.03125 1.34375 1.03125 3.71875l0 0.140625zm-2.203125 -0.1875q0 -1.484375 -0.59375 -2.34375q-0.578125 -0.859375 -1.671875 -0.859375q-1.359375 0 -1.953125 1.109375l0 4.375q0.59375 1.15625 1.96875 1.15625q1.0625 0 1.65625 -0.84375q0.59375 -0.859375 0.59375 -2.59375zm9.95636 5.015625q-0.140625 -0.28125 -0.25 -0.921875q-1.046875 1.109375 -2.578125 1.109375q-1.484375 0 -2.4375 -0.84375q-0.9375 -0.859375 -0.9375 -2.109375q0 -1.578125 1.171875 -2.40625q1.171875 -0.84375 3.359375 -0.84375l1.359375 0l0 -0.65625q0 -0.765625 -0.4375 -1.21875q-0.421875 -0.46875 -1.296875 -0.46875q-0.765625 0 -1.25 0.390625q-0.46875 0.375 -0.46875 0.953125l-2.21875 0q0 -0.8125 0.53125 -1.515625q0.546875 -0.703125 1.46875 -1.09375q0.921875 -0.40625 2.0625 -0.40625q1.734375 0 2.75 0.875q1.03125 0.859375 1.0625 2.4375l0 4.4375q0 1.328125 0.375 2.125l0 0.15625l-2.265625 0zm-2.421875 -1.59375q0.65625 0 1.234375 -0.3125q0.578125 -0.328125 0.875 -0.859375l0 -1.859375l-1.203125 0q-1.234375 0 -1.859375 0.4375q-0.609375 0.421875 -0.609375 1.203125q0 0.640625 0.421875 1.015625q0.421875 0.375 1.140625 0.375zm9.405884 -10.65625l0 2.390625l1.734375 0l0 1.640625l-1.734375 0l0 5.5q0 0.5625 0.21875 0.8125q0.234375 0.25 0.796875 0.25q0.390625 0 0.78125 -0.078125l0 1.703125q-0.75 0.21875 -1.453125 0.21875q-2.5625 0 -2.5625 -2.8125l0 -5.59375l-1.609436 0l0 -1.640625l1.609436 0l0 -2.390625l2.21875 0zm6.203491 0l0 2.390625l1.734375 0l0 1.640625l-1.734375 0l0 5.5q0 0.5625 0.21875 0.8125q0.234375 0.25 0.796875 0.25q0.390625 0 0.78125 -0.078125l0 1.703125q-0.75 0.21875 -1.453125 0.21875q-2.5625 0 -2.5625 -2.8125l0 -5.59375l-1.609375 0l0 -1.640625l1.609375 0l0 -2.390625l2.21875 0zm7.7661133 12.4375q-2.09375 0 -3.40625 -1.328125q-1.3125 -1.328125 -1.3125 -3.53125l0 -0.28125q0 -1.46875 0.5625 -2.625q0.578125 -1.171875 1.609375 -1.8125q1.03125 -0.640625 2.296875 -0.640625q2.015625 0 3.109375 1.28125q1.09375 1.28125 1.09375 3.625l0 0.890625l-6.4375 0q0.109375 1.234375 0.8125 1.953125q0.71875 0.703125 1.8125 0.703125q1.515625 0 2.46875 -1.234375l1.203125 1.140625q-0.59375 0.875 -1.59375 1.375q-0.984375 0.484375 -2.21875 0.484375zm-0.265625 -8.453125q-0.90625 0 -1.46875 0.640625q-0.5625 0.640625 -0.703125 1.78125l4.203125 0l0 -0.171875q-0.0625 -1.109375 -0.59375 -1.671875q-0.515625 -0.578125 -1.4375 -0.578125zm11.105103 0.4375q-0.4375 -0.078125 -0.90625 -0.078125q-1.515625 0 -2.046875 1.171875l0 6.734375l-2.21875 0l0 -9.859375l2.125 0l0.046875 1.109375q0.796875 -1.28125 2.21875 -1.28125q0.484375 0 0.78125 0.125l0 2.078125zm3.449463 -2.03125l0.0625 1.140625q1.09375 -1.3125 2.875 -1.3125q3.078125 0 3.125 3.515625l0 6.515625l-2.203125 0l0 -6.390625q0 -0.9375 -0.40625 -1.375q-0.40625 -0.453125 -1.328125 -0.453125q-1.34375 0 -2.0 1.203125l0 7.015625l-2.203125 0l0 -9.859375l2.078125 0z" fill-rule="nonzero"/><path fill="#000000" fill-opacity="0.0" d="m918.92126 106.58268l200.78735 0l0 33.259834l-200.78735 0z" fill-rule="evenodd"/><path fill="#000000" d="m936.90564 124.5076l-5.328125 0l0 5.625l-2.3125 0l0 -13.265625l8.4375 0l0 1.859375l-6.125 0l0 3.953125l5.328125 0l0 1.828125zm7.9695435 5.625q-0.140625 -0.28125 -0.25 -0.921875q-1.046875 1.109375 -2.578125 1.109375q-1.484375 0 -2.4375 -0.84375q-0.9375 -0.859375 -0.9375 -2.109375q0 -1.578125 1.171875 -2.40625q1.171875 -0.84375 3.359375 -0.84375l1.359375 0l0 -0.65625q0 -0.765625 -0.4375 -1.21875q-0.421875 -0.46875 -1.296875 -0.46875q-0.765625 0 -1.25 0.390625q-0.46875 0.375 -0.46875 0.953125l-2.21875 0q0 -0.8125 0.53125 -1.515625q0.546875 -0.703125 1.46875 -1.09375q0.921875 -0.40625 2.0625 -0.40625q1.734375 0 2.75 0.875q1.03125 0.859375 1.0625 2.4375l0 4.4375q0 1.328125 0.375 2.125l0 0.15625l-2.265625 0zm-2.421875 -1.59375q0.65625 0 1.234375 -0.3125q0.578125 -0.328125 0.875 -0.859375l0 -1.859375l-1.203125 0q-1.234375 0 -1.859375 0.4375q-0.609375 0.421875 -0.609375 1.203125q0 0.640625 0.421875 1.015625q0.421875 0.375 1.140625 0.375zm10.687073 0.015625q0.828125 0 1.375 -0.484375q0.546875 -0.484375 0.578125 -1.203125l2.09375 0q-0.046875 0.921875 -0.59375 1.71875q-0.53125 0.796875 -1.453125 1.265625q-0.90625 0.46875 -1.984375 0.46875q-2.0625 0 -3.28125 -1.34375q-1.203125 -1.34375 -1.203125 -3.703125l0 -0.21875q0 -2.25 1.203125 -3.59375q1.203125 -1.359375 3.28125 -1.359375q1.75 0 2.859375 1.03125q1.109375 1.015625 1.171875 2.671875l-2.09375 0q-0.03125 -0.84375 -0.578125 -1.390625q-0.546875 -0.546875 -1.375 -0.546875q-1.078125 0 -1.671875 0.78125q-0.578125 0.78125 -0.578125 2.359375l0 0.359375q0 1.609375 0.578125 2.40625q0.578125 0.78125 1.671875 0.78125zm8.484131 -10.671875l0 2.390625l1.734375 0l0 1.640625l-1.734375 0l0 5.5q0 0.5625 0.21875 0.8125q0.234375 0.25 0.796875 0.25q0.390625 0 0.78125 -0.078125l0 1.703125q-0.75 0.21875 -1.453125 0.21875q-2.5625 0 -2.5625 -2.8125l0 -5.59375l-1.609375 0l0 -1.640625l1.609375 0l0 -2.390625l2.21875 0zm2.7426147 7.234375q0 -1.453125 0.578125 -2.609375q0.578125 -1.171875 1.609375 -1.78125q1.03125 -0.625 2.390625 -0.625q1.984375 0 3.234375 1.28125q1.25 1.28125 1.34375 3.40625l0.015625 0.515625q0 1.453125 -0.5625 2.609375q-0.5625 1.140625 -1.609375 1.78125q-1.046875 0.625 -2.40625 0.625q-2.09375 0 -3.34375 -1.390625q-1.25 -1.390625 -1.25 -3.703125l0 -0.109375zm2.21875 0.1875q0 1.515625 0.625 2.390625q0.625 0.859375 1.75 0.859375q1.125 0 1.734375 -0.875q0.625 -0.875 0.625 -2.5625q0 -1.5 -0.640625 -2.375q-0.640625 -0.875 -1.734375 -0.875q-1.09375 0 -1.734375 0.859375q-0.625 0.859375 -0.625 2.578125zm13.981079 -3.0q-0.4375 -0.078125 -0.90625 -0.078125q-1.515625 0 -2.046875 1.171875l0 6.734375l-2.21875 0l0 -9.859375l2.125 0l0.046875 1.109375q0.796875 -1.28125 2.21875 -1.28125q0.484375 0 0.78125 0.125l0 2.078125zm5.0041504 4.65625l2.015625 -6.6875l2.359375 0l-3.921875 11.359375q-0.90625 2.484375 -3.0625 2.484375q-0.484375 0 -1.0625 -0.171875l0 -1.703125l0.421875 0.015625q0.828125 0 1.25 -0.3125q0.421875 -0.296875 0.671875 -1.015625l0.328125 -0.84375l-3.46875 -9.8125l2.390625 0l2.078125 6.6875zm18.915466 -1.65625q0 2.28125 -1.046875 3.65625q-1.03125 1.359375 -2.78125 1.359375q-1.625 0 -2.59375 -1.078125l0 4.6875l-2.21875 0l0 -13.65625l2.046875 0l0.09375 1.0q0.96875 -1.171875 2.640625 -1.171875q1.8125 0 2.828125 1.34375q1.03125 1.34375 1.03125 3.71875l0 0.140625zm-2.203125 -0.1875q0 -1.484375 -0.59375 -2.34375q-0.578125 -0.859375 -1.671875 -0.859375q-1.359375 0 -1.953125 1.109375l0 4.375q0.59375 1.15625 1.96875 1.15625q1.0625 0 1.65625 -0.84375q0.59375 -0.859375 0.59375 -2.59375zm9.956421 5.015625q-0.140625 -0.28125 -0.25 -0.921875q-1.046875 1.109375 -2.578125 1.109375q-1.484375 0 -2.4375 -0.84375q-0.9375 -0.859375 -0.9375 -2.109375q0 -1.578125 1.171875 -2.40625q1.171875 -0.84375 3.359375 -0.84375l1.359375 0l0 -0.65625q0 -0.765625 -0.4375 -1.21875q-0.421875 -0.46875 -1.296875 -0.46875q-0.765625 0 -1.25 0.390625q-0.46875 0.375 -0.46875 0.953125l-2.21875 0q0 -0.8125 0.53125 -1.515625q0.546875 -0.703125 1.46875 -1.09375q0.921875 -0.40625 2.0625 -0.40625q1.734375 0 2.75 0.875q1.03125 0.859375 1.0625 2.4375l0 4.4375q0 1.328125 0.375 2.125l0 0.15625l-2.265625 0zm-2.421875 -1.59375q0.65625 0 1.234375 -0.3125q0.578125 -0.328125 0.875 -0.859375l0 -1.859375l-1.203125 0q-1.234375 0 -1.859375 0.4375q-0.609375 0.421875 -0.609375 1.203125q0 0.640625 0.421875 1.015625q0.421875 0.375 1.140625 0.375zm9.405823 -10.65625l0 2.390625l1.734375 0l0 1.640625l-1.734375 0l0 5.5q0 0.5625 0.21875 0.8125q0.234375 0.25 0.796875 0.25q0.390625 0 0.78125 -0.078125l0 1.703125q-0.75 0.21875 -1.453125 0.21875q-2.5625 0 -2.5625 -2.8125l0 -5.59375l-1.609375 0l0 -1.640625l1.609375 0l0 -2.390625l2.21875 0zm6.2035522 0l0 2.390625l1.734375 0l0 1.640625l-1.734375 0l0 5.5q0 0.5625 0.21875 0.8125q0.234375 0.25 0.796875 0.25q0.390625 0 0.78125 -0.078125l0 1.703125q-0.75 0.21875 -1.453125 0.21875q-2.5625 0 -2.5625 -2.8125l0 -5.59375l-1.609375 0l0 -1.640625l1.609375 0l0 -2.390625l2.21875 0zm7.7661133 12.4375q-2.09375 0 -3.40625 -1.328125q-1.3125 -1.328125 -1.3125 -3.53125l0 -0.28125q0 -1.46875 0.5625 -2.625q0.578125 -1.171875 1.609375 -1.8125q1.03125 -0.640625 2.296875 -0.640625q2.015625 0 3.109375 1.28125q1.09375 1.28125 1.09375 3.625l0 0.890625l-6.4375 0q0.109375 1.234375 0.8125 1.953125q0.71875 0.703125 1.8125 0.703125q1.515625 0 2.46875 -1.234375l1.203125 1.140625q-0.59375 0.875 -1.59375 1.375q-0.984375 0.484375 -2.21875 0.484375zm-0.265625 -8.453125q-0.90625 0 -1.46875 0.640625q-0.5625 0.640625 -0.703125 1.78125l4.203125 0l0 -0.171875q-0.0625 -1.109375 -0.59375 -1.671875q-0.515625 -0.578125 -1.4375 -0.578125zm11.10498 0.4375q-0.4375 -0.078125 -0.90625 -0.078125q-1.515625 0 -2.046875 1.171875l0 6.734375l-2.21875 0l0 -9.859375l2.125 0l0.046875 1.109375q0.796875 -1.28125 2.21875 -1.28125q0.484375 0 0.78125 0.125l0 2.078125zm3.449463 -2.03125l0.0625 1.140625q1.09375 -1.3125 2.875 -1.3125q3.078125 0 3.125 3.515625l0 6.515625l-2.203125 0l0 -6.390625q0 -0.9375 -0.40625 -1.375q-0.40625 -0.453125 -1.328125 -0.453125q-1.34375 0 -2.0 1.203125l0 7.015625l-2.203125 0l0 -9.859375l2.078125 0z" fill-rule="nonzero"/><path fill="#000000" fill-opacity="0.0" d="m918.92126 173.00262l200.78735 0l0 33.259842l-200.78735 0z" fill-rule="evenodd"/><path fill="#000000" d="m931.7025 196.55255l-2.296875 0l0 -13.265625l2.296875 0l0 13.265625zm4.671509 -9.859375l0.0625 1.140625q1.09375 -1.3125 2.875 -1.3125q3.078125 0 3.125 3.515625l0 6.515625l-2.203125 0l0 -6.390625q0 -0.9375 -0.40625 -1.375q-0.40625 -0.453125 -1.328125 -0.453125q-1.34375 0 -2.0 1.203125l0 7.015625l-2.203125 0l0 -9.859375l2.078125 0zm10.500732 1.078125q1.09375 -1.25 2.75 -1.25q3.140625 0 3.1875 3.59375l0 6.4375l-2.203125 0l0 -6.359375q0 -1.015625 -0.453125 -1.4375q-0.4375 -0.421875 -1.296875 -0.421875q-1.328125 0 -1.984375 1.171875l0 7.046875l-2.203125 0l0 -14.0l2.203125 0l0 5.21875zm12.513733 8.96875q-2.09375 0 -3.40625 -1.328125q-1.3125 -1.328125 -1.3125 -3.53125l0 -0.28125q0 -1.46875 0.5625 -2.625q0.578125 -1.171875 1.609375 -1.8125q1.03125 -0.640625 2.296875 -0.640625q2.015625 0 3.109375 1.28125q1.09375 1.28125 1.09375 3.625l0 0.890625l-6.4375 0q0.109375 1.234375 0.8125 1.953125q0.71875 0.703125 1.8125 0.703125q1.515625 0 2.46875 -1.234375l1.203125 1.140625q-0.59375 0.875 -1.59375 1.375q-0.984375 0.484375 -2.21875 0.484375zm-0.265625 -8.453125q-0.90625 0 -1.46875 0.640625q-0.5625 0.640625 -0.703125 1.78125l4.203125 0l0 -0.171875q-0.0625 -1.109375 -0.59375 -1.671875q-0.515625 -0.578125 -1.4375 -0.578125zm11.105103 0.4375q-0.4375 -0.078125 -0.90625 -0.078125q-1.515625 0 -2.046875 1.171875l0 6.734375l-2.21875 0l0 -9.859375l2.125 0l0.046875 1.109375q0.796875 -1.28125 2.21875 -1.28125q0.484375 0 0.78125 0.125l0 2.078125zm3.746338 7.828125l-2.203125 0l0 -9.859375l2.203125 0l0 9.859375zm-2.34375 -12.421875q0 -0.5 0.3125 -0.828125q0.328125 -0.34375 0.921875 -0.34375q0.609375 0 0.9375 0.34375q0.328125 0.328125 0.328125 0.828125q0 0.5 -0.328125 0.84375q-0.328125 0.328125 -0.9375 0.328125q-0.59375 0 -0.921875 -0.328125q-0.3125 -0.34375 -0.3125 -0.84375zm7.529907 0.171875l0 2.390625l1.734375 0l0 1.640625l-1.734375 0l0 5.5q0 0.5625 0.21875 0.8125q0.234375 0.25 0.796875 0.25q0.390625 0 0.78125 -0.078125l0 1.703125q-0.75 0.21875 -1.453125 0.21875q-2.5625 0 -2.5625 -2.8125l0 -5.59375l-1.609375 0l0 -1.640625l1.609375 0l0 -2.390625l2.21875 0zm9.312927 12.25q-0.140625 -0.28125 -0.25 -0.921875q-1.046875 1.109375 -2.578125 1.109375q-1.484375 0 -2.4375 -0.84375q-0.9375 -0.859375 -0.9375 -2.109375q0 -1.578125 1.171875 -2.40625q1.171875 -0.84375 3.359375 -0.84375l1.359375 0l0 -0.65625q0 -0.765625 -0.4375 -1.21875q-0.421875 -0.46875 -1.296875 -0.46875q-0.765625 0 -1.25 0.390625q-0.46875 0.375 -0.46875 0.953125l-2.21875 0q0 -0.8125 0.53125 -1.515625q0.546875 -0.703125 1.46875 -1.09375q0.921875 -0.40625 2.0625 -0.40625q1.734375 0 2.75 0.875q1.03125 0.859375 1.0625 2.4375l0 4.4375q0 1.328125 0.375 2.125l0 0.15625l-2.265625 0zm-2.421875 -1.59375q0.65625 0 1.234375 -0.3125q0.578125 -0.328125 0.875 -0.859375l0 -1.859375l-1.203125 0q-1.234375 0 -1.859375 0.4375q-0.609375 0.421875 -0.609375 1.203125q0 0.640625 0.421875 1.015625q0.421875 0.375 1.140625 0.375zm8.687073 -8.265625l0.0625 1.140625q1.09375 -1.3125 2.875 -1.3125q3.078125 0 3.125 3.515625l0 6.515625l-2.203125 0l0 -6.390625q0 -0.9375 -0.40625 -1.375q-0.40625 -0.453125 -1.328125 -0.453125q-1.34375 0 -2.0 1.203125l0 7.015625l-2.203125 0l0 -9.859375l2.078125 0zm12.375732 8.28125q0.828125 0 1.375 -0.484375q0.546875 -0.484375 0.578125 -1.203125l2.09375 0q-0.046875 0.921875 -0.59375 1.71875q-0.53125 0.796875 -1.453125 1.265625q-0.90625 0.46875 -1.984375 0.46875q-2.0625 0 -3.28125 -1.34375q-1.203125 -1.34375 -1.203125 -3.703125l0 -0.21875q0 -2.25 1.203125 -3.59375q1.203125 -1.359375 3.28125 -1.359375q1.75 0 2.859375 1.03125q1.109375 1.015625 1.171875 2.671875l-2.09375 0q-0.03125 -0.84375 -0.578125 -1.390625q-0.546875 -0.546875 -1.375 -0.546875q-1.078125 0 -1.671875 0.78125q-0.578125 0.78125 -0.578125 2.359375l0 0.359375q0 1.609375 0.578125 2.40625q0.578125 0.78125 1.671875 0.78125zm10.046631 1.765625q-2.09375 0 -3.40625 -1.328125q-1.3125 -1.328125 -1.3125 -3.53125l0 -0.28125q0 -1.46875 0.5625 -2.625q0.578125 -1.171875 1.609375 -1.8125q1.03125 -0.640625 2.296875 -0.640625q2.015625 0 3.109375 1.28125q1.09375 1.28125 1.09375 3.625l0 0.890625l-6.4375 0q0.109375 1.234375 0.8125 1.953125q0.71875 0.703125 1.8125 0.703125q1.515625 0 2.46875 -1.234375l1.203125 1.140625q-0.59375 0.875 -1.59375 1.375q-0.984375 0.484375 -2.21875 0.484375zm-0.265625 -8.453125q-0.90625 0 -1.46875 0.640625q-0.5625 0.640625 -0.703125 1.78125l4.203125 0l0 -0.171875q-0.0625 -1.109375 -0.59375 -1.671875q-0.515625 -0.578125 -1.4375 -0.578125z" fill-rule="nonzero"/></g></svg>